HIERARCHY
ROOT Hips
{
  OFFSET -34.0595 37.9216 24.9081
  CHANNELS 6 Xposition Yposition Zposition Zrotation Xrotation Yrotation
  JOINT LeftHip
  {
    OFFSET 3.43 7.79598e-014 -1.17593e-013
    CHANNELS 6 Xposition Yposition Zposition Zrotation Xrotation Yrotation
    JOINT LeftKnee
    {
      OFFSET 1.3119e-012 -18.47 7.25765e-012
      CHANNELS 6 Xposition Yposition Zposition Zrotation Xrotation Yrotation
      JOINT LeftAnkle
      {
        OFFSET 2.13163e-014 -17.95 -2.64129e-012
        CHANNELS 6 Xposition Yposition Zposition Zrotation Xrotation Yrotation
        End Site
        {
          OFFSET 0 -3.12 0
        }
      }
    }
  }
  JOINT RightHip
  {
    OFFSET -3.43 3.25873e-013 -8.81214e-013
    CHANNELS 6 Xposition Yposition Zposition Zrotation Xrotation Yrotation
    JOINT RightKnee
    {
      OFFSET 2.00953e-013 -18.47 4.44089e-014
      CHANNELS 6 Xposition Yposition Zposition Zrotation Xrotation Yrotation
      JOINT RightAnkle
      {
        OFFSET -5.17844e-012 -17.95 -1.97132e-013
        CHANNELS 6 Xposition Yposition Zposition Zrotation Xrotation Yrotation
        End Site
        {
          OFFSET 0 -3.12 0
        }
      }
    }
  }
  JOINT Chest
  {
    OFFSET 1.25223e-013 4.57 4.43396e-013
    CHANNELS 6 Xposition Yposition Zposition Zrotation Xrotation Yrotation
    JOINT Chest2
    {
      OFFSET 4.82271e-013 6.57 2.74318e-013
      CHANNELS 6 Xposition Yposition Zposition Zrotation Xrotation Yrotation
      JOINT LeftCollar
      {
        OFFSET 1.06 4.19 1.76
        CHANNELS 6 Xposition Yposition Zposition Zrotation Xrotation Yrotation
        JOINT LeftShoulder
        {
          OFFSET 5.81 3.4064e-013 -2.38274e-012
          CHANNELS 6 Xposition Yposition Zposition Zrotation Xrotation Yrotation
          JOINT LeftElbow
          {
            OFFSET -2.47959e-012 -12.08 -1.0553e-012
            CHANNELS 6 Xposition Yposition Zposition Zrotation Xrotation Yrotation
            JOINT LeftWrist
            {
              OFFSET 2.84217e-014 -9.82 6.39488e-014
              CHANNELS 6 Xposition Yposition Zposition Zrotation Xrotation Yrotation
              End Site
              {
                OFFSET 0 -7.37 0
              }
            }
          }
        }
      }
      JOINT RightCollar
      {
        OFFSET -1.06 4.19 1.76
        CHANNELS 6 Xposition Yposition Zposition Zrotation Xrotation Yrotation
        JOINT RightShoulder
        {
          OFFSET -6.06 -4.27918e-012 -1.63741e-012
          CHANNELS 6 Xposition Yposition Zposition Zrotation Xrotation Yrotation
          JOINT RightElbow
          {
            OFFSET 6.94285e-013 -11.08 -1.83449e-012
            CHANNELS 6 Xposition Yposition Zposition Zrotation Xrotation Yrotation
            JOINT RightWrist
            {
              OFFSET -7.10543e-015 -9.82 1.77636e-014
              CHANNELS 6 Xposition Yposition Zposition Zrotation Xrotation Yrotation
              End Site
              {
                OFFSET 0 -7.14001 0
              }
            }
          }
        }
      }
      JOINT Neck
      {
        OFFSET -3.16819e-012 4.05 9.76996e-015
        CHANNELS 6 Xposition Yposition Zposition Zrotation Xrotation Yrotation
        JOINT Head
        {
          OFFSET -5.32907e-015 5.19 -1.77636e-015
          CHANNELS 6 Xposition Yposition Zposition Zrotation Xrotation Yrotation
          End Site
          {
            OFFSET 0 4.14001 0
          }
        }
      }
    }
  }
}
MOTION
Frames:	10
Frame Time:	0.0333333
15.8497 34.6319 -7.17456 -0.866194 -12.5744 -3.31615 3.43 4.74039e-016 1.24109e-014 15.7694 -12.3157 11.9228 4.22396e-014 -18.47 2.66529e-014 9.30567 57.6776 -2.75609 2.13163e-014 -17.95 -8.85345e-015 -19.0723 -28.1923 -4.83112 -3.43 -9.18432e-014 -7.23271e-015 -16.5717 -12.3016 -11.4602 -4.33805e-014 -18.47 4.44089e-014 -4.12421 58.1993 4.57422 -1.81794e-014 -17.95 7.11546e-015 14.4308 -29.9573 3.88001 1.06068e-014 4.57 2.8473e-015 -1.2224 2.30985 -0.892888 -5.89052e-018 6.57 -6.18483e-015 -1.01373 2.10099 -0.885631 1.06 4.19 1.76 3.3461 0.255667 -7.51531 5.81 2.05862e-014 3.55433e-015 112.77 -61.4964 24.4326 2.93121e-014 -12.08 1.76418e-014 -9.30377 -16.6083 -7.81155 2.84217e-014 -9.82 6.39488e-014 0.677164 -4.78304 0.0282546 -1.06 4.19 1.76 13.4836 2.16746 10.0098 -6.06 4.24441e-014 3.47198e-015 -123.011 -55.185 -38.5177 -5.66756e-014 -11.08 -3.51157e-015 18.0677 -31.6323 16.2834 -7.10543e-015 -9.82 1.77636e-014 -9.16708 -4.94078 -0.396342 -2.25347e-014 4.05 9.76996e-015 2.00656 9.7575 -0.155726 -5.32907e-015 5.19 -1.77636e-015 -2.51291 5.31758 0.72551 
15.8446 34.6331 -7.17917 -0.850993 -12.6099 -3.33847 3.43 3.47095e-015 1.38821e-014 15.7514 -12.259 11.9223 4.02184e-014 -18.47 2.67451e-014 9.29418 57.6583 -2.73705 2.13163e-014 -17.95 -8.79918e-015 -19.0797 -28.1884 -4.83232 -3.43 1.69836e-013 -7.98151e-015 -16.571 -12.2936 -11.4433 -4.27345e-014 -18.47 4.44089e-014 -4.15773 58.2086 4.58527 -1.79387e-014 -17.95 6.82534e-015 14.4327 -29.9478 3.87924 1.02945e-014 4.57 2.79325e-015 -1.25434 2.32998 -0.899862 -7.45271e-017 6.57 -6.04134e-015 -1.04215 2.11961 -0.894253 1.06 4.19 1.76 3.30963 0.259137 -7.51632 5.81 1.362e-014 3.4964e-015 112.76 -61.4288 24.316 1.98175e-014 -12.08 1.70288e-014 -9.31723 -16.5701 -8.22257 2.84217e-014 -9.82 6.39488e-014 0.782999 -4.70556 0.0321835 -1.06 4.19 1.76 13.5648 2.1826 10.0563 -6.06 4.20366e-014 3.45043e-015 -123.162 -55.1675 -38.4432 -5.56331e-014 -11.08 -3.03615e-015 18.1009 -31.576 16.243 -7.10543e-015 -9.82 1.77636e-014 -9.16686 -4.9789 -0.399393 6.21571e-014 4.05 9.76996e-015 1.95133 9.80164 -0.0652583 -5.32907e-015 5.19 -1.77636e-015 -2.2839 5.20442 0.722361 
15.8352 34.6311 -7.18728 -0.850296 -12.6398 -3.32702 3.43 8.1695e-015 1.64291e-014 15.7453 -12.2533 11.8934 3.74859e-014 -18.47 2.69361e-014 9.33799 57.6564 -2.77208 2.13163e-014 -17.95 -8.83867e-015 -19.1015 -28.1695 -4.83457 -3.43 9.02334e-014 -9.10904e-015 -16.5561 -12.2849 -11.4365 -4.19532e-014 -18.47 4.44089e-014 -4.16127 58.2349 4.64775 -1.74964e-014 -17.95 6.01282e-015 14.3822 -29.9738 3.86904 9.81232e-015 4.57 2.9026e-015 -1.25621 2.35336 -0.912029 -2.14617e-016 6.57 -5.87591e-015 -1.04283 2.1408 -0.905693 1.06 4.19 1.76 3.17575 0.272248 -7.50841 5.81 1.34538e-015 3.33587e-015 112.961 -61.439 24.4848 2.86215e-015 -12.08 1.62167e-014 -9.34114 -16.4009 -7.94666 2.84217e-014 -9.82 6.39488e-014 0.714342 -4.77518 0.029777 -1.06 4.19 1.76 13.4877 2.17572 10.0763 -6.06 4.21744e-014 3.2022e-015 -123.144 -55.1777 -38.4085 -5.40059e-014 -11.08 -2.06697e-015 18.082 -31.5599 16.2849 -7.10543e-015 -9.82 1.77636e-014 -9.13088 -4.96379 -0.396611 1.11832e-013 4.05 9.76996e-015 1.87578 9.83211 -0.0423438 -5.32907e-015 5.19 -1.77636e-015 -2.24922 5.10562 0.708485 
15.8299 34.6352 -7.20138 -0.812538 -12.6281 -3.3092 3.43 1.44902e-014 2.00422e-014 15.6657 -12.2833 11.8246 3.40517e-014 -18.47 2.72252e-014 9.38318 57.6081 -2.74238 2.13163e-014 -17.95 -8.97096e-015 -19.1408 -28.1117 -4.83437 -3.43 1.59595e-014 -1.0609e-014 -16.6088 -12.3165 -11.4776 -4.10383e-014 -18.47 4.44089e-014 -4.12951 58.2336 4.67302 -1.68554e-014 -17.95 4.6859e-015 14.3289 -29.9567 3.85226 9.16197e-015 4.57 3.17342e-015 -1.29707 2.35852 -0.892 -4.2527e-016 6.57 -5.68883e-015 -1.08155 2.1453 -0.891386 1.06 4.19 1.76 3.22603 0.267285 -7.51271 5.81 -1.46839e-014 3.07328e-015 112.936 -61.4892 24.7057 -3.64819e-015 -12.08 1.52091e-014 -9.30986 -16.2932 -8.01087 2.84217e-014 -9.82 6.39488e-014 0.487742 -4.84168 0.0206162 -1.06 4.19 1.76 13.5575 2.18467 10.0809 -6.06 4.28451e-014 2.72951e-015 -123.146 -55.1129 -38.3072 -5.18066e-014 -11.08 -6.08814e-016 18.0846 -31.6127 16.504 -7.10543e-015 -9.82 1.77636e-014 -9.09423 -4.93921 -0.393045 1.61501e-013 4.05 9.76996e-015 1.91554 9.83591 -0.0735179 -5.32907e-015 5.19 -1.77636e-015 -2.30688 5.08887 0.710615 
15.8232 34.6394 -7.2154 -0.820594 -12.5945 -3.3276 3.43 2.23536e-014 2.47114e-014 15.6577 -12.319 11.8038 2.99256e-014 -18.47 2.76119e-014 9.40327 57.5749 -2.7116 2.13163e-014 -17.95 -9.1951e-015 -19.1705 -28.0702 -4.83456 -3.43 -5.34017e-014 -1.24752e-014 -16.573 -12.3796 -11.4652 -3.99913e-014 -18.47 4.44089e-014 -4.13001 58.2235 4.63226 -1.60186e-014 -17.95 2.85256e-015 14.3207 -29.9208 3.84521 8.34527e-015 4.57 3.60376e-015 -1.27091 2.37146 -0.820519 -7.056e-016 6.57 -5.48037e-015 -1.064 2.15553 -0.825214 1.06 4.19 1.76 3.20727 0.267905 -7.55073 5.81 -3.29142e-014 2.70921e-015 112.998 -61.5297 24.9838 1.81921e-014 -12.08 1.40093e-014 -9.27571 -16.248 -8.17878 2.84217e-014 -9.82 6.39488e-014 0.212173 -4.90501 0.00908242 -1.06 4.19 1.76 13.3474 2.14772 9.98025 -6.06 4.40366e-014 2.03461e-015 -122.971 -55.0895 -38.2072 -4.90479e-014 -11.08 1.33352e-015 18.0532 -31.7421 16.586 -7.10543e-015 -9.82 1.77636e-014 -9.1752 -4.86236 -0.390396 2.1116e-013 4.05 9.76996e-015 1.86741 9.72536 -0.114303 -5.32907e-015 5.19 -1.77636e-015 -2.28185 5.21834 0.653046 
15.8214 34.6354 -7.2204 -0.780969 -12.6159 -3.31539 3.43 3.16803e-014 3.04265e-014 15.6071 -12.3169 11.7688 2.51172e-014 -18.47 2.80956e-014 9.41019 57.584 -2.68759 2.13163e-014 -17.95 -9.51013e-015 -19.1897 -28.0607 -4.83778 -3.43 -1.79246e-013 -1.47013e-014 -16.6513 -12.3848 -11.507 -3.88139e-014 -18.47 4.44089e-014 -4.10108 58.2658 4.67615 -1.49891e-014 -17.95 5.20789e-016 14.2791 -29.9365 3.83605 7.36398e-015 4.57 4.19168e-015 -1.30239 2.38518 -0.812005 -1.05472e-015 6.57 -5.25079e-015 -1.093 2.16797 -0.820567 1.06 4.19 1.76 3.21269 0.266593 -7.576 5.81 -5.17919e-014 2.24421e-015 112.9 -61.4194 24.8919 1.03029e-013 -12.08 1.26209e-014 -9.28852 -16.3542 -8.23214 2.84217e-014 -9.82 6.39488e-014 0.053427 -4.94254 0.00231616 -1.06 4.19 1.76 13.359 2.15047 9.99178 -6.06 4.57368e-014 1.1197e-015 -122.958 -55.1052 -38.1743 -4.57422e-014 -11.08 3.75525e-015 18.0792 -31.7134 16.5545 -7.10543e-015 -9.82 1.77636e-014 -9.25915 -4.86191 -0.393942 2.60807e-013 4.05 9.76996e-015 1.89215 9.73435 -0.112365 -5.32907e-015 5.19 -1.77636e-015 -2.2909 5.15971 0.669002 
15.8175 34.6383 -7.23283 -0.738176 -12.5227 -3.33877 3.43 4.23909e-014 3.71777e-014 15.5863 -12.4057 11.7908 1.96365e-014 -18.47 2.86757e-014 9.32723 57.5607 -2.62325 2.13163e-014 -17.95 -9.9151e-015 -19.1598 -28.0344 -4.8254 -3.43 2.11109e-013 -1.72811e-014 -16.6902 -12.513 -11.5262 -3.75074e-014 -18.47 4.44089e-014 -4.09027 58.2778 4.70921 -1.37697e-014 -17.95 -2.30144e-015 14.2332 -29.9287 3.82255 6.21991e-015 4.57 4.93524e-015 -1.31885 2.34121 -0.752584 -1.47173e-015 6.57 -5.00038e-015 -1.1128 2.12688 -0.770068 1.06 4.19 1.76 3.27746 0.260283 -7.57768 5.81 -6.97633e-014 1.67886e-015 112.849 -61.4325 24.8836 1.71752e-013 -12.08 1.10472e-014 -9.37004 -16.3266 -8.28864 2.84217e-014 -9.82 6.39488e-014 0.30807 -4.91226 0.0132206 -1.06 4.19 1.76 13.2388 2.13051 9.94289 -6.06 4.79334e-014 -1.29683e-017 -122.758 -55.0665 -38.1499 -4.19022e-014 -11.08 6.65158e-015 18.0951 -31.858 16.4702 -7.10543e-015 -9.82 1.77636e-014 -9.27126 -4.7831 -0.388049 3.10438e-013 4.05 9.76996e-015 1.9305 9.70922 -0.153106 -5.32907e-015 5.19 -1.77636e-015 -2.4514 5.00718 0.682806 
15.8081 34.6458 -7.24413 -0.750284 -12.4689 -3.32383 3.43 5.44057e-014 4.49549e-014 15.6154 -12.4547 11.8027 1.3493e-014 -18.47 2.93515e-014 9.30501 57.5165 -2.62494 2.13163e-014 -17.95 -1.04091e-014 -19.1412 -27.9978 -4.81411 -3.43 -1.46827e-014 -2.02083e-014 -16.6515 -12.5634 -11.5291 -3.60737e-014 -18.47 4.44089e-014 -4.05523 58.2423 4.64137 -1.23634e-014 -17.95 -5.60613e-015 14.2161 -29.893 3.81316 4.91482e-015 4.57 5.83248e-015 -1.30305 2.32146 -0.761288 -1.95576e-015 6.57 -4.72941e-015 -1.09756 2.10879 -0.777442 1.06 4.19 1.76 3.29227 0.259809 -7.54769 5.81 -8.52747e-014 1.01371e-015 112.8 -61.3807 24.6712 -8.91509e-014 -12.08 9.2918e-015 -9.41947 -16.3868 -8.25132 2.84217e-014 -9.82 6.39488e-014 0.24787 -4.82203 0.0104332 -1.06 4.19 1.76 13.1464 2.1171 9.92153 -6.06 5.06143e-014 -1.36118e-015 -122.661 -55.1457 -38.219 -3.75405e-014 -11.08 1.00177e-014 18.129 -31.8759 16.4063 -7.10543e-015 -9.82 1.77636e-014 -9.29937 -4.65764 -0.37902 3.60049e-013 4.05 9.76996e-015 1.93676 9.73461 -0.166358 -5.32907e-015 5.19 -1.77636e-015 -2.56563 4.71054 0.700928 
15.8051 34.65 -7.25297 -0.725272 -12.5033 -3.29947 3.43 6.76455e-014 5.37482e-014 15.6063 -12.4272 11.805 6.69649e-015 -18.47 3.01225e-014 9.27099 57.484 -2.62984 2.13163e-014 -17.95 -1.0991e-014 -19.1088 -27.9668 -4.80027 -3.43 -2.30094e-014 -2.34765e-014 -16.6657 -12.5436 -11.5296 -3.45141e-014 -18.47 4.44089e-014 -4.06996 58.2291 4.59586 -1.07732e-014 -17.95 -9.38529e-015 14.2401 -29.8566 3.81479 3.4505e-015 4.57 6.88148e-015 -1.32224 2.36479 -0.768789 -2.50591e-015 6.57 -4.43814e-015 -1.11415 2.14851 -0.785215 1.06 4.19 1.76 3.3315 0.256954 -7.51887 5.81 -9.67724e-014 2.49338e-016 112.687 -61.3661 24.5291 -5.34919e-014 -12.08 7.358e-015 -9.41917 -16.3891 -8.15772 2.84217e-014 -9.82 6.39488e-014 0.149117 -4.85022 0.00631985 -1.06 4.19 1.76 13.1206 2.11393 9.92058 -6.06 5.37672e-014 -2.92271e-015 -122.718 -55.1867 -38.2441 -3.26698e-014 -11.08 1.38489e-014 18.1338 -31.8539 16.4009 -7.10543e-015 -9.82 1.77636e-014 -9.28022 -4.66729 -0.379018 4.09636e-013 4.05 9.76996e-015 1.94917 9.77089 -0.171009 -5.32907e-015 5.19 -1.77636e-015 -2.52255 4.26517 0.684019 
15.8038 34.6472 -7.2679 -0.716659 -12.519 -3.24875 3.43 8.20307e-014 6.35476e-014 15.601 -12.4743 11.7882 -7.43243e-016 -18.47 3.09881e-014 9.29547 57.5067 -2.65903 2.13163e-014 -17.95 -1.16601e-014 -19.0962 -27.9395 -4.79219 -3.43 -4.70457e-015 -2.70797e-014 -16.6752 -12.5438 -11.5517 -3.28302e-014 -18.47 4.44089e-014 -4.04763 58.2568 4.56524 -9.00206e-015 -17.95 -1.3631e-014 14.2299 -29.8586 3.81228 1.82872e-015 4.57 8.08029e-015 -1.33994 2.39399 -0.764007 -3.12129e-015 6.57 -4.12685e-015 -1.13054 2.17547 -0.781065 1.06 4.19 1.76 3.40224 0.249738 -7.53153 5.81 -1.02703e-013 -6.13706e-016 112.795 -61.4848 24.5026 -5.42413e-014 -12.08 5.24931e-015 -9.45643 -16.0938 -8.17861 2.84217e-014 -9.82 6.39488e-014 0.0493832 -4.91832 0.00208186 -1.06 4.19 1.76 13.2351 2.13241 9.96322 -6.06 5.73801e-014 -4.69532e-015 -122.777 -55.1381 -38.2727 -2.73025e-014 -11.08 1.81403e-014 18.0881 -31.828 16.3967 -7.10543e-015 -9.82 1.77636e-014 -9.29184 -4.62621 -0.376158 4.59197e-013 4.05 9.76996e-015 2.01037 9.74372 -0.194419 -5.32907e-015 5.19 -1.77636e-015 -2.42495 4.31817 0.657213 
